HIERARCHY
ROOT joint_Root
{
	OFFSET 0.0 0.0 0.0
	CHANNELS 6 Xposition Yposition Zposition Zrotation Xrotation Yrotation 
	JOINT Hips
	{
		OFFSET 4.5925 91.4895 -427.239
		CHANNELS 6 Xposition Yposition Zposition Zrotation Xrotation Yrotation 
		JOINT Spine
		{
			OFFSET 15.7357 0.0 0.0
			CHANNELS 6 Xposition Yposition Zposition Zrotation Xrotation Yrotation 
			JOINT Chest
			{
				OFFSET 8.98455 -0.406207 0.0
				CHANNELS 6 Xposition Yposition Zposition Zrotation Xrotation Yrotation 
				JOINT Neck
				{
					OFFSET 16.3773 0.0 0.0
					CHANNELS 6 Xposition Yposition Zposition Zrotation Xrotation Yrotation 
					JOINT Head
					{
						OFFSET 6.45672 0.0 0.0
						CHANNELS 6 Xposition Yposition Zposition Zrotation Xrotation Yrotation 
						End Site
						{
							OFFSET 0.0 0.0 0.0
						}
					}
				}
				JOINT Shoulder_L
				{
					OFFSET 12.9942 -0.242716 4.98039
					CHANNELS 6 Xposition Yposition Zposition Zrotation Xrotation Yrotation 
					JOINT UpperArm_L
					{
						OFFSET 5.34809 0.0 0.0
						CHANNELS 6 Xposition Yposition Zposition Zrotation Xrotation Yrotation 
						JOINT LowerArm_L
						{
							OFFSET 24.3286 1.87007e-05 0.0
							CHANNELS 6 Xposition Yposition Zposition Zrotation Xrotation Yrotation 
							JOINT Hand_L
							{
								OFFSET 22.2916 0.0 0.0
								CHANNELS 6 Xposition Yposition Zposition Zrotation Xrotation Yrotation 
								End Site
								{
									OFFSET 0.0 0.0 0.0
								}
							}
						}
					}
				}
				JOINT Shoulder_R
				{
					OFFSET 12.9945 -0.242716 -4.98039
					CHANNELS 6 Xposition Yposition Zposition Zrotation Xrotation Yrotation 
					JOINT UpperArm_R
					{
						OFFSET -5.34813 0.0 0.0
						CHANNELS 6 Xposition Yposition Zposition Zrotation Xrotation Yrotation 
						JOINT LowerArm_R
						{
							OFFSET -24.3289 0.000322201 0.0
							CHANNELS 6 Xposition Yposition Zposition Zrotation Xrotation Yrotation 
							JOINT Hand_R
							{
								OFFSET -22.2915 -0.000108084 0.0
								CHANNELS 6 Xposition Yposition Zposition Zrotation Xrotation Yrotation 
								End Site
								{
									OFFSET 0.0 0.0 0.0
								}
							}
						}
					}
				}
			}
		}
		JOINT UpperLeg_L
		{
			OFFSET -2.19248 -6.46944 0.0
			CHANNELS 6 Xposition Yposition Zposition Zrotation Xrotation Yrotation 
			JOINT LowerLeg_L
			{
				OFFSET 39.0811 0.0 -1.23785e-05
				CHANNELS 6 Xposition Yposition Zposition Zrotation Xrotation Yrotation 
				JOINT Foot_L
				{
					OFFSET 40.9854 0.0 -1.26872e-05
					CHANNELS 6 Xposition Yposition Zposition Zrotation Xrotation Yrotation 
					JOINT Toes_L
					{
						OFFSET 11.7543 0.0 0.0
						CHANNELS 6 Xposition Yposition Zposition Zrotation Xrotation Yrotation 
						End Site
						{
							OFFSET 0.0 0.0 0.0
						}
					}
				}
			}
		}
		JOINT UpperLeg_R
		{
			OFFSET -2.19251 6.46944 0.0
			CHANNELS 6 Xposition Yposition Zposition Zrotation Xrotation Yrotation 
			JOINT LowerLeg_R
			{
				OFFSET -39.0811 -0.00228153 -0.0401928
				CHANNELS 6 Xposition Yposition Zposition Zrotation Xrotation Yrotation 
				JOINT Foot_R
				{
					OFFSET -40.9854 0.0 0.0
					CHANNELS 6 Xposition Yposition Zposition Zrotation Xrotation Yrotation 
					JOINT Toes_R
					{
						OFFSET -11.7543 0.0 0.0
						CHANNELS 6 Xposition Yposition Zposition Zrotation Xrotation Yrotation 
						End Site
						{
							OFFSET 0.0 0.0 0.0
						}
					}
				}
			}
		}
	}
}
MOTION
Frames:	8
Frame Time:	0.0333333
0.000000 0.000000 0.000000 0.000000 0.000000 -0.000000 -9.333710 90.420000 -24.996800 85.867600 0.893319 -6.975170 15.735700 0.000005 -0.000001 50.271100 83.305300 -49.348400 8.984550 -0.406207 -0.000000 2.628470 -8.592080 2.043590 16.377300 -0.000001 -0.000001 -8.481220 -1.589530 -0.076822 6.456720 -0.000001 -0.000000 -14.206400 1.123260 2.906680 12.994200 -0.242716 4.980390 -90.265300 1.049050 -75.823600 5.348090 -0.000007 -0.000001 -73.942800 25.615800 -16.238300 24.328600 0.000019 0.000005 31.764700 -12.383000 -109.105000 22.291600 -0.000001 0.000005 8.174550 5.367450 -1.915960 12.994500 -0.242716 -4.980390 88.676200 5.106110 -75.443800 -5.348130 -0.000001 -0.000004 -74.366100 39.058300 18.657500 -24.328900 0.000322 -0.000009 -4.060620 1.241260 -106.969000 -22.291500 -0.000108 -0.000004 15.510600 5.589750 -10.746000 -2.192480 -6.469440 -0.000000 -176.339000 -11.373500 -0.678120 39.081100 -0.000007 -0.000012 0.006773 -0.011358 30.803500 40.985400 -0.000006 -0.000013 7.633690 7.953400 -66.726800 11.754300 -0.000000 0.000003 -0.071334 -0.366983 -31.778000 -2.192510 6.469440 -0.000001 -173.179000 6.261140 146.809000 -39.081100 -0.002282 -0.040193 -0.036519 0.028178 54.665900 -40.985400 0.000008 0.000006 7.530030 -3.062040 -62.851100 -11.754300 -0.000006 -0.000006 -0.017328 -0.152011 -22.779100
0.000000 0.000000 0.000000 0.000000 0.000000 -0.000000 -9.484580 92.159000 -19.083000 86.097900 1.602080 -8.786530 15.735700 0.000005 -0.000001 41.745100 83.246900 -40.441900 8.984550 -0.406207 -0.000000 1.368180 -10.145300 2.730770 16.377300 -0.000001 -0.000001 -9.221010 -2.131290 0.039374 6.456720 -0.000001 -0.000000 -14.701000 1.189510 3.380820 12.994200 -0.242716 4.980390 -89.813000 -0.810439 -76.996000 5.348090 -0.000007 -0.000001 -66.446500 34.887100 -23.883300 24.328600 0.000019 0.000005 29.056500 -12.125500 -110.709000 22.291600 -0.000001 0.000005 4.788520 5.421170 -3.644830 12.994500 -0.242716 -4.980390 88.975200 3.871020 -75.158500 -5.348130 -0.000001 -0.000004 -74.913200 39.421000 20.589900 -24.328900 0.000322 -0.000009 -3.596940 1.192290 -108.317000 -22.291500 -0.000108 -0.000004 14.894700 5.583970 -10.424900 -2.192480 -6.469440 -0.000000 -174.406000 -15.803000 1.029670 39.081100 -0.000007 -0.000012 0.026034 -0.049426 27.776100 40.985400 -0.000006 -0.000013 5.848870 14.636300 -55.012200 11.754300 -0.000000 0.000003 -0.131332 -0.516474 -38.312200 -2.192510 6.469440 -0.000001 -171.800000 8.221940 147.501000 -39.081100 -0.002282 -0.040193 -0.017375 0.028063 36.364500 -40.985400 0.000008 0.000006 4.833020 2.939930 -63.127300 -11.754300 -0.000006 -0.000006 -0.018016 -0.156043 -22.944900
0.000000 0.000000 0.000000 0.000000 0.000000 -0.000000 -9.404570 92.513700 -12.585700 87.090300 1.600520 -8.660620 15.735700 0.000005 -0.000001 40.066900 82.941300 -38.747400 8.984550 -0.406207 -0.000000 1.477510 -10.871200 2.783440 16.377300 -0.000001 -0.000001 -9.578320 -2.349050 0.102584 6.456720 -0.000001 -0.000000 -15.410000 0.244986 4.465620 12.994200 -0.242716 4.980390 -89.346700 -2.838550 -77.035400 5.348090 -0.000007 -0.000001 -56.140100 42.126800 -34.404200 24.328600 0.000019 0.000005 31.260900 -13.546900 -111.099000 22.291600 -0.000001 0.000005 2.032020 5.431550 -3.987220 12.994500 -0.242716 -4.980390 89.289400 2.649330 -74.978500 -5.348130 -0.000001 -0.000004 -74.708600 39.076500 20.940000 -24.328900 0.000322 -0.000009 -2.379530 0.854799 -109.752000 -22.291500 -0.000108 -0.000004 14.261200 5.576970 -10.048200 -2.192480 -6.469440 -0.000000 -173.111000 -17.368300 3.789570 39.081100 -0.000007 -0.000012 0.062574 -0.118649 27.806500 40.985400 -0.000006 -0.000013 1.158460 17.760500 -46.211300 11.754300 -0.000000 0.000003 -0.092012 -0.424303 -34.248700 -2.192510 6.469440 -0.000001 -171.786000 10.071600 149.345000 -39.081100 -0.002282 -0.040193 -0.002213 0.012959 23.105200 -40.985400 0.000008 0.000006 -1.562570 10.006500 -61.562300 -11.754300 -0.000006 -0.000006 -0.018950 -0.161402 -23.165500
0.000000 0.000000 0.000000 0.000000 0.000000 -0.000000 -9.201050 91.574200 -5.532890 88.136500 1.033670 -7.060610 15.735700 0.000005 -0.000001 42.242900 82.542200 -41.079200 8.984550 -0.406207 -0.000000 2.417880 -11.088100 2.565410 16.377300 -0.000001 -0.000001 -8.970170 -2.322050 0.209005 6.456720 -0.000001 -0.000000 -15.786200 -0.658619 5.792420 12.994200 -0.242716 4.980390 -88.962100 -4.263190 -76.303600 5.348090 -0.000007 -0.000001 -46.047500 45.965500 -44.397900 24.328600 0.000019 0.000005 30.481700 -13.728600 -111.959000 22.291600 -0.000001 0.000005 1.072490 5.417900 -3.530810 12.994500 -0.242716 -4.980390 89.431600 2.124960 -75.020200 -5.348130 -0.000001 -0.000004 -72.981300 38.683800 19.238900 -24.328900 0.000322 -0.000009 -0.969916 0.381368 -111.484000 -22.291500 -0.000108 -0.000004 13.927700 5.567680 -9.570450 -2.192480 -6.469440 -0.000000 -173.748000 -12.596000 7.034310 39.081100 -0.000007 -0.000012 0.064318 -0.108821 30.584500 40.985400 -0.000006 -0.000013 -3.447990 13.600300 -42.487500 11.754300 -0.000000 0.000003 -0.018158 -0.156877 -22.983000 -2.192510 6.469440 -0.000001 -171.290000 14.140900 150.106000 -39.081100 -0.002282 -0.040193 -0.006137 0.025379 20.438700 -40.985400 0.000008 0.000006 -6.444320 14.390100 -61.472600 -11.754300 -0.000006 -0.000006 -0.020051 -0.167569 -23.419400
0.000000 0.000000 0.000000 0.000000 0.000000 -0.000000 -9.193140 89.762300 1.567130 87.342300 0.646007 -6.305410 15.735700 0.000005 -0.000001 44.701000 82.691300 -43.028600 8.984550 -0.406207 -0.000000 2.712210 -10.454800 3.596750 16.377300 -0.000001 -0.000001 -7.797400 -2.706860 0.248807 6.456720 -0.000001 -0.000000 -15.447400 -1.180230 6.331800 12.994200 -0.242716 4.980390 -89.252400 -2.855690 -75.318200 5.348090 -0.000007 -0.000001 -36.043200 47.339900 -52.211300 24.328600 0.000019 0.000005 28.298900 -13.244700 -113.051000 22.291600 -0.000001 0.000005 1.855200 5.416080 -3.467790 12.994500 -0.242716 -4.980390 88.947800 3.838630 -74.659700 -5.348130 -0.000001 -0.000004 -68.629600 38.011500 16.096000 -24.328900 0.000322 -0.000009 -0.410747 0.182075 -113.890000 -22.291500 -0.000108 -0.000004 14.392200 5.567810 -9.575660 -2.192480 -6.469440 -0.000000 -173.848000 -8.559020 7.476930 39.081100 -0.000007 -0.000012 0.057509 -0.073047 38.212100 40.985400 -0.000006 -0.000013 -3.078020 3.796980 -44.514600 11.754300 -0.000000 0.000003 -0.007262 -0.081911 -19.911600 -2.192510 6.469440 -0.000001 -169.037000 13.645500 146.873000 -39.081100 -0.002282 -0.040193 0.062812 -0.104127 29.748200 -40.985400 0.000008 0.000006 5.722730 7.455990 -60.801000 -11.754300 -0.000006 -0.000006 -0.021982 -0.178028 -23.850600
0.000000 0.000000 0.000000 0.000000 0.000000 -0.000000 -9.396310 87.080700 9.040430 86.980700 1.265980 -4.586960 15.735700 0.000005 -0.000001 47.931000 82.737000 -45.889100 8.984550 -0.406207 -0.000000 3.236800 -9.803220 4.365020 16.377300 -0.000001 -0.000001 -6.332170 -3.602950 0.901986 6.456720 -0.000001 -0.000000 -14.106500 -1.086680 5.686050 12.994200 -0.242716 4.980390 -89.940700 -0.220555 -75.022200 5.348090 -0.000007 -0.000001 -32.242700 47.972300 -53.182100 24.328600 0.000019 0.000005 27.777400 -13.137400 -113.340000 22.291600 -0.000001 0.000005 0.738181 5.450560 -4.676780 12.994500 -0.242716 -4.980390 88.048600 6.987280 -74.353900 -5.348130 -0.000001 -0.000004 -63.529400 36.147200 12.400300 -24.328900 0.000322 -0.000009 -1.498090 0.720362 -115.672000 -22.291500 -0.000108 -0.000004 15.625900 5.584720 -10.450500 -2.192480 -6.469440 -0.000000 -173.782000 -5.038810 6.895850 39.081100 -0.000007 -0.000012 0.037039 -0.032072 49.108000 40.985400 -0.000006 -0.000013 -1.078900 -4.718480 -45.873600 11.754300 -0.000000 0.000003 -0.005032 -0.061785 -19.090700 -2.192510 6.469440 -0.000001 -170.074000 12.794100 145.768000 -39.081100 -0.002282 -0.040193 -0.347636 0.362943 44.034300 -40.985400 0.000008 0.000006 7.591370 2.450600 -66.214700 -11.754300 -0.000006 -0.000006 -0.006723 -0.077264 -19.718200
0.000000 0.000000 0.000000 0.000000 0.000000 -0.000000 -9.668090 84.589700 15.936300 85.372500 1.123660 -1.756690 15.735700 0.000005 -0.000001 57.857600 82.353100 -55.022000 8.984550 -0.406207 -0.000000 5.436590 -8.176330 6.061180 16.377300 -0.000001 -0.000001 -6.539970 -3.376760 1.121070 6.456720 -0.000001 -0.000000 -12.904700 -1.496570 5.872220 12.994200 -0.242716 4.980390 -90.595200 2.323880 -75.628200 5.348090 -0.000007 -0.000001 -39.062800 48.753400 -44.256300 24.328600 0.000019 0.000005 29.280200 -12.590300 -111.244000 22.291600 -0.000001 0.000005 0.400432 5.481280 -5.790530 12.994500 -0.242716 -4.980390 86.966000 10.868600 -74.298300 -5.348130 -0.000001 -0.000004 -57.391700 33.814900 5.204380 -24.328900 0.000322 -0.000009 -2.742390 1.235700 -114.230000 -22.291500 -0.000108 -0.000004 18.531700 5.604690 -11.629800 -2.192480 -6.469440 -0.000000 -171.938000 -3.739820 4.738750 39.081100 -0.000007 -0.000012 0.001502 -0.000778 62.452000 40.985400 -0.000006 -0.000013 3.173630 -7.813980 -47.447700 11.754300 -0.000000 0.000003 -0.004577 -0.057324 -18.908900 -2.192510 6.469440 -0.000001 -169.543000 10.181300 149.037000 -39.081100 -0.002282 -0.040193 -0.200492 0.149319 53.760700 -40.985400 0.000008 0.000006 9.668340 -2.424070 -75.872300 -11.754300 -0.000006 -0.000006 -0.000313 -0.005105 -16.781200
0.000000 0.000000 0.000000 0.000000 0.000000 -0.000000 -9.838960 82.952900 22.056700 84.190100 1.789070 -0.381824 15.735700 0.000005 -0.000001 63.353000 81.996400 -59.924900 8.984550 -0.406207 -0.000000 6.807100 -7.184930 7.283990 16.377300 -0.000001 -0.000001 -6.572650 -2.847580 1.866580 6.456720 -0.000001 -0.000000 -12.868700 -1.042600 6.438350 12.994200 -0.242716 4.980390 -90.783900 3.078970 -75.708800 5.348090 -0.000007 -0.000001 -54.657300 47.906500 -27.465300 24.328600 0.000019 0.000005 32.987900 -10.956500 -106.328000 22.291600 -0.000001 0.000005 3.134790 5.496260 -6.383470 12.994500 -0.242716 -4.980390 86.433200 13.131100 -74.656800 -5.348130 -0.000001 -0.000004 -54.907200 31.657000 -3.786050 -24.328900 0.000322 -0.000009 1.301330 -0.463760 -109.726000 -22.291500 -0.000108 -0.000004 19.713600 5.582510 -10.347600 -2.192480 -6.469440 -0.000000 -170.824000 -2.086590 -1.729960 39.081100 -0.000007 -0.000012 -0.057392 0.014828 75.519900 40.985400 -0.000006 -0.000013 5.049590 -8.489330 -48.604700 11.754300 -0.000000 0.000003 -0.003847 -0.049844 -18.604200 -2.192510 6.469440 -0.000001 -168.955000 12.227000 153.260000 -39.081100 -0.002282 -0.040193 -0.049217 0.032870 57.915000 -40.985400 0.000008 0.000006 10.610500 -3.079300 -83.057600 -11.754300 -0.000006 -0.000006 -0.365456 -0.444975 -16.298200
